<svg width="28" height="16" viewBox="0 0 28 16" fill="none" xmlns="http://www.w3.org/2000/svg">
<path d="M1 9C0.447715 9 4.82823e-08 8.55228 0 8C-4.82823e-08 7.44772 0.447715 7 1 7L1 9ZM27.7071 7.29289C28.0976 7.68342 28.0976 8.31658 27.7071 8.7071L21.3431 15.0711C20.9526 15.4616 20.3195 15.4616 19.9289 15.0711C19.5384 14.6805 19.5384 14.0474 19.9289 13.6569L25.5858 8L19.9289 2.34314C19.5384 1.95262 19.5384 1.31945 19.9289 0.928931C20.3195 0.538406 20.9526 0.538406 21.3431 0.92893L27.7071 7.29289ZM1 7L27 7L27 9L1 9L1 7Z" fill="#773101"/>
</svg>
