<svg width="18" height="18" viewBox="0 0 18 18" fill="none" xmlns="http://www.w3.org/2000/svg">
<path d="M14.7379 16.3699C13.0663 18.0414 8.78564 16.4708 5.17666 12.8618C1.56768 9.25282 -0.00293159 4.97213 1.66859 3.30059L2.76916 2.20002C3.52895 1.44024 4.78089 1.46032 5.56545 2.24488L7.27013 3.94957C8.05469 4.73413 8.07478 5.98607 7.31499 6.74586L7.0786 6.98225C6.66838 7.39246 6.62825 8.05423 7.00942 8.51614C7.37708 8.96168 7.77346 9.40546 8.20322 9.83523C8.63299 10.265 9.07677 10.6614 9.52231 11.029C9.98422 11.4102 10.646 11.3701 11.0562 10.9599L11.2926 10.7235C12.0524 9.96367 13.3043 9.98376 14.0889 10.7683L15.7936 12.473C16.5781 13.2576 16.5982 14.5095 15.8384 15.2693L14.7379 16.3699Z" fill="white" stroke="white" stroke-width="1.2"/>
<path d="M13.51 6.77417C13.3013 6.26511 12.9903 5.78818 12.5769 5.37483C12.1869 4.98483 11.7403 4.68593 11.2635 4.47813" stroke="#F29622" stroke-width="1.2" stroke-linecap="round"/>
<path d="M11.2635 1.56751C12.4051 1.98105 13.4761 2.6454 14.3912 3.56056C15.3294 4.49869 16.0039 5.6006 16.415 6.77433" stroke="#F29622" stroke-width="1.2" stroke-linecap="round"/>
</svg>
