<svg width="18" height="21" viewBox="0 0 18 21" fill="none" xmlns="http://www.w3.org/2000/svg">
<path fill-rule="evenodd" clip-rule="evenodd" d="M8.75 0C3.92493 0 0 3.87281 0 8.66667C0 11.6482 1.73872 14.5909 3.58144 16.7329C4.51395 17.8169 5.50371 18.732 6.37674 19.3828C6.81256 19.7077 7.23144 19.9758 7.60954 20.1662C7.96398 20.3447 8.36876 20.5 8.75 20.5C9.13124 20.5 9.53602 20.3447 9.89046 20.1662C10.2686 19.9758 10.6874 19.7077 11.1233 19.3828C11.9963 18.732 12.986 17.8169 13.9186 16.7329C15.7613 14.5909 17.5 11.6482 17.5 8.66667C17.5 3.87281 13.5751 0 8.75 0Z" fill="white"/>
<circle cx="3" cy="3" r="3" transform="matrix(-1 0 0 1 11.75 5.25)" fill="#F29622"/>
</svg>
