<svg width="22" height="19" viewBox="0 0 22 19" fill="none" xmlns="http://www.w3.org/2000/svg">
<path fill-rule="evenodd" clip-rule="evenodd" d="M0.25 6.4534C0.25 3.27776 2.82436 0.7034 6 0.7034H16C19.1756 0.7034 21.75 3.27776 21.75 6.4534V12.4534C21.75 15.629 19.1756 18.2034 16 18.2034H6C2.82436 18.2034 0.25 15.629 0.25 12.4534V6.4534ZM5.37479 7.46684C5.01601 7.25985 4.55735 7.3829 4.35036 7.74168C4.14337 8.10047 4.26642 8.55912 4.62521 8.76612L9.62576 11.6511C10.4762 12.1417 11.5238 12.1417 12.3742 11.6511L17.3748 8.76612C17.7336 8.55912 17.8566 8.10047 17.6496 7.74168C17.4426 7.3829 16.984 7.25985 16.6252 7.46684L11.6247 10.3518C11.2381 10.5748 10.7619 10.5748 10.3753 10.3518L5.37479 7.46684Z" fill="white"/>
</svg>
